<mxfile host="app.diagrams.net" modified="2024-06-14T10:14:44.000Z" agent="Mozilla/5.0 (Windows NT 10.0; Win64; x64; rv:126.0) Gecko/20100101 Firefox/126.0" etag="PDXbJCaCZ2FKlnxAwJXw" version="24.5.1" type="device">
  <diagram name="Strona-1" id="Gu86XyusW3oJNSxuE_qr">
    <mxGraphModel dx="2607" dy="1422" grid="1" gridSize="10" guides="1" tooltips="1" connect="1" arrows="1" fold="1" page="1" pageScale="1" pageWidth="1260" pageHeight="866" math="0" shadow="0">
      <root>
        <mxCell id="0" />
        <mxCell id="1" parent="0" />
        <mxCell id="bTtCV00hiHCe_hMrs-O1-1" value="" style="rounded=0;whiteSpace=wrap;html=1;" parent="1" vertex="1">
          <mxGeometry x="540" y="40" width="400" height="400" as="geometry" />
        </mxCell>
        <mxCell id="bTtCV00hiHCe_hMrs-O1-2" value="" style="endArrow=none;html=1;rounded=0;exitX=0;exitY=0.75;exitDx=0;exitDy=0;entryX=1;entryY=0.75;entryDx=0;entryDy=0;" parent="1" source="bTtCV00hiHCe_hMrs-O1-1" target="bTtCV00hiHCe_hMrs-O1-1" edge="1">
          <mxGeometry width="50" height="50" relative="1" as="geometry">
            <mxPoint x="720" y="320" as="sourcePoint" />
            <mxPoint x="770" y="270" as="targetPoint" />
          </mxGeometry>
        </mxCell>
        <mxCell id="bTtCV00hiHCe_hMrs-O1-3" value="" style="endArrow=none;html=1;rounded=0;entryX=0.75;entryY=0;entryDx=0;entryDy=0;exitX=0.75;exitY=1;exitDx=0;exitDy=0;" parent="1" source="bTtCV00hiHCe_hMrs-O1-1" target="bTtCV00hiHCe_hMrs-O1-1" edge="1">
          <mxGeometry width="50" height="50" relative="1" as="geometry">
            <mxPoint x="830" y="190" as="sourcePoint" />
            <mxPoint x="880" y="140" as="targetPoint" />
          </mxGeometry>
        </mxCell>
        <mxCell id="bTtCV00hiHCe_hMrs-O1-4" value="" style="rounded=0;whiteSpace=wrap;html=1;" parent="1" vertex="1">
          <mxGeometry x="540" y="560" width="300" height="100" as="geometry" />
        </mxCell>
        <mxCell id="bTtCV00hiHCe_hMrs-O1-6" value="&lt;b style=&quot;font-size: 15px;&quot;&gt;Item info&lt;br&gt;&lt;/b&gt;" style="text;html=1;align=center;verticalAlign=middle;whiteSpace=wrap;rounded=0;" parent="1" vertex="1">
          <mxGeometry x="625" y="365" width="130" height="50" as="geometry" />
        </mxCell>
        <mxCell id="bTtCV00hiHCe_hMrs-O1-7" value="" style="rounded=0;whiteSpace=wrap;html=1;" parent="1" vertex="1">
          <mxGeometry x="790" y="595" width="50" height="50" as="geometry" />
        </mxCell>
        <mxCell id="bTtCV00hiHCe_hMrs-O1-13" value="" style="rounded=0;whiteSpace=wrap;html=1;" parent="1" vertex="1">
          <mxGeometry x="740" y="595" width="50" height="50" as="geometry" />
        </mxCell>
        <mxCell id="bTtCV00hiHCe_hMrs-O1-14" value="" style="rounded=0;whiteSpace=wrap;html=1;" parent="1" vertex="1">
          <mxGeometry x="690" y="595" width="50" height="50" as="geometry" />
        </mxCell>
        <mxCell id="bTtCV00hiHCe_hMrs-O1-15" value="" style="rounded=0;whiteSpace=wrap;html=1;" parent="1" vertex="1">
          <mxGeometry x="640" y="595" width="50" height="50" as="geometry" />
        </mxCell>
        <mxCell id="bTtCV00hiHCe_hMrs-O1-16" value="" style="rounded=0;whiteSpace=wrap;html=1;" parent="1" vertex="1">
          <mxGeometry x="590" y="595" width="50" height="50" as="geometry" />
        </mxCell>
        <mxCell id="bTtCV00hiHCe_hMrs-O1-17" value="" style="rounded=0;whiteSpace=wrap;html=1;" parent="1" vertex="1">
          <mxGeometry x="540" y="595" width="50" height="50" as="geometry" />
        </mxCell>
        <mxCell id="bTtCV00hiHCe_hMrs-O1-18" value="" style="rounded=0;whiteSpace=wrap;html=1;" parent="1" vertex="1">
          <mxGeometry x="940" y="560" width="300" height="100" as="geometry" />
        </mxCell>
        <mxCell id="bTtCV00hiHCe_hMrs-O1-19" value="Side1" style="text;html=1;align=center;verticalAlign=middle;whiteSpace=wrap;rounded=0;" parent="1" vertex="1">
          <mxGeometry x="540" y="605" width="50" height="30" as="geometry" />
        </mxCell>
        <mxCell id="bTtCV00hiHCe_hMrs-O1-20" value="Side6" style="text;html=1;align=center;verticalAlign=middle;whiteSpace=wrap;rounded=0;" parent="1" vertex="1">
          <mxGeometry x="790" y="605" width="50" height="30" as="geometry" />
        </mxCell>
        <mxCell id="bTtCV00hiHCe_hMrs-O1-21" value="Side5" style="text;html=1;align=center;verticalAlign=middle;whiteSpace=wrap;rounded=0;" parent="1" vertex="1">
          <mxGeometry x="740" y="605" width="50" height="30" as="geometry" />
        </mxCell>
        <mxCell id="bTtCV00hiHCe_hMrs-O1-22" value="Side4" style="text;html=1;align=center;verticalAlign=middle;whiteSpace=wrap;rounded=0;" parent="1" vertex="1">
          <mxGeometry x="690" y="605" width="50" height="30" as="geometry" />
        </mxCell>
        <mxCell id="bTtCV00hiHCe_hMrs-O1-23" value="Side3" style="text;html=1;align=center;verticalAlign=middle;whiteSpace=wrap;rounded=0;" parent="1" vertex="1">
          <mxGeometry x="640" y="605" width="50" height="30" as="geometry" />
        </mxCell>
        <mxCell id="bTtCV00hiHCe_hMrs-O1-24" value="Side2" style="text;html=1;align=center;verticalAlign=middle;whiteSpace=wrap;rounded=0;" parent="1" vertex="1">
          <mxGeometry x="590" y="605" width="50" height="30" as="geometry" />
        </mxCell>
        <mxCell id="bTtCV00hiHCe_hMrs-O1-25" value="Statistics: Stat1 +X, Stat2 +Y..." style="text;html=1;align=left;verticalAlign=middle;whiteSpace=wrap;rounded=0;" parent="1" vertex="1">
          <mxGeometry x="940" y="620" width="300" height="30" as="geometry" />
        </mxCell>
        <mxCell id="bTtCV00hiHCe_hMrs-O1-27" value="Requirements: Req1, Req2, Req3..." style="text;html=1;align=left;verticalAlign=middle;whiteSpace=wrap;rounded=0;" parent="1" vertex="1">
          <mxGeometry x="940" y="590" width="300" height="30" as="geometry" />
        </mxCell>
        <mxCell id="bTtCV00hiHCe_hMrs-O1-28" value="" style="endArrow=classic;html=1;rounded=0;entryX=0.5;entryY=1;entryDx=0;entryDy=0;strokeWidth=5;exitX=0.5;exitY=0;exitDx=0;exitDy=0;" parent="1" source="bTtCV00hiHCe_hMrs-O1-31" target="bTtCV00hiHCe_hMrs-O1-6" edge="1">
          <mxGeometry width="50" height="50" relative="1" as="geometry">
            <mxPoint x="640" y="550" as="sourcePoint" />
            <mxPoint x="760" y="500" as="targetPoint" />
          </mxGeometry>
        </mxCell>
        <mxCell id="bTtCV00hiHCe_hMrs-O1-29" value="" style="endArrow=classic;html=1;rounded=0;entryX=1;entryY=1;entryDx=0;entryDy=0;strokeWidth=5;exitX=0.5;exitY=0;exitDx=0;exitDy=0;" parent="1" source="bTtCV00hiHCe_hMrs-O1-32" target="bTtCV00hiHCe_hMrs-O1-6" edge="1">
          <mxGeometry width="50" height="50" relative="1" as="geometry">
            <mxPoint x="1150" y="500" as="sourcePoint" />
            <mxPoint x="1100" y="350" as="targetPoint" />
          </mxGeometry>
        </mxCell>
        <mxCell id="bTtCV00hiHCe_hMrs-O1-30" value="&lt;font style=&quot;font-size: 30px;&quot;&gt;Or&lt;/font&gt;" style="text;html=1;align=center;verticalAlign=middle;whiteSpace=wrap;rounded=0;" parent="1" vertex="1">
          <mxGeometry x="780" y="490" width="60" height="30" as="geometry" />
        </mxCell>
        <mxCell id="bTtCV00hiHCe_hMrs-O1-31" value="Name" style="text;html=1;align=center;verticalAlign=middle;whiteSpace=wrap;rounded=0;" parent="1" vertex="1">
          <mxGeometry x="655" y="575" width="70" height="20" as="geometry" />
        </mxCell>
        <mxCell id="bTtCV00hiHCe_hMrs-O1-32" value="Name" style="text;html=1;align=center;verticalAlign=middle;whiteSpace=wrap;rounded=0;" parent="1" vertex="1">
          <mxGeometry x="1055" y="570" width="70" height="20" as="geometry" />
        </mxCell>
        <mxCell id="bTtCV00hiHCe_hMrs-O1-33" value="" style="rounded=0;whiteSpace=wrap;html=1;" parent="1" vertex="1">
          <mxGeometry x="940" y="740" width="300" height="100" as="geometry" />
        </mxCell>
        <mxCell id="bTtCV00hiHCe_hMrs-O1-35" value="&lt;div&gt;Effect: Effect1 X, Effect2 Y...&lt;/div&gt;" style="text;html=1;align=left;verticalAlign=middle;whiteSpace=wrap;rounded=0;" parent="1" vertex="1">
          <mxGeometry x="940" y="785" width="300" height="30" as="geometry" />
        </mxCell>
        <mxCell id="bTtCV00hiHCe_hMrs-O1-36" value="Name" style="text;html=1;align=center;verticalAlign=middle;whiteSpace=wrap;rounded=0;" parent="1" vertex="1">
          <mxGeometry x="1055" y="765" width="70" height="20" as="geometry" />
        </mxCell>
        <mxCell id="bTtCV00hiHCe_hMrs-O1-37" value="&lt;font style=&quot;font-size: 30px;&quot;&gt;Or&lt;/font&gt;" style="text;html=1;align=center;verticalAlign=middle;whiteSpace=wrap;rounded=0;" parent="1" vertex="1">
          <mxGeometry x="1060" y="680" width="60" height="30" as="geometry" />
        </mxCell>
        <mxCell id="bTtCV00hiHCe_hMrs-O1-38" value="" style="rounded=0;whiteSpace=wrap;html=1;" parent="1" vertex="1">
          <mxGeometry x="850" y="350" width="80" height="20" as="geometry" />
        </mxCell>
        <mxCell id="bTtCV00hiHCe_hMrs-O1-41" value="Equipment" style="text;html=1;align=center;verticalAlign=middle;whiteSpace=wrap;rounded=0;" parent="1" vertex="1">
          <mxGeometry x="850" y="350" width="80" height="20" as="geometry" />
        </mxCell>
        <mxCell id="bTtCV00hiHCe_hMrs-O1-46" value="" style="rounded=0;whiteSpace=wrap;html=1;" parent="1" vertex="1">
          <mxGeometry x="850" y="380" width="80" height="20" as="geometry" />
        </mxCell>
        <mxCell id="bTtCV00hiHCe_hMrs-O1-47" value="Backpack" style="text;html=1;align=center;verticalAlign=middle;whiteSpace=wrap;rounded=0;" parent="1" vertex="1">
          <mxGeometry x="850" y="380" width="80" height="20" as="geometry" />
        </mxCell>
        <mxCell id="bTtCV00hiHCe_hMrs-O1-48" value="" style="rounded=0;whiteSpace=wrap;html=1;" parent="1" vertex="1">
          <mxGeometry x="850" y="410" width="80" height="20" as="geometry" />
        </mxCell>
        <mxCell id="bTtCV00hiHCe_hMrs-O1-49" value="Close" style="text;html=1;align=center;verticalAlign=middle;whiteSpace=wrap;rounded=0;" parent="1" vertex="1">
          <mxGeometry x="850" y="410" width="80" height="20" as="geometry" />
        </mxCell>
        <mxCell id="bTtCV00hiHCe_hMrs-O1-50" value="&lt;b&gt;&lt;font style=&quot;font-size: 16px;&quot;&gt;Info&lt;/font&gt;&lt;/b&gt;" style="text;html=1;align=center;verticalAlign=middle;whiteSpace=wrap;rounded=0;" parent="1" vertex="1">
          <mxGeometry x="842.5" y="40" width="95" height="30" as="geometry" />
        </mxCell>
        <mxCell id="bTtCV00hiHCe_hMrs-O1-51" value="&lt;div align=&quot;left&quot;&gt;Name&lt;/div&gt;&lt;div align=&quot;left&quot;&gt;&lt;br&gt;&lt;/div&gt;&lt;div align=&quot;left&quot;&gt;Strength: X&lt;/div&gt;&lt;div align=&quot;left&quot;&gt;Endurance: Y&lt;/div&gt;&lt;div align=&quot;left&quot;&gt;Intelligence: Z&lt;/div&gt;&lt;div align=&quot;left&quot;&gt;Charisma: Q&lt;/div&gt;&lt;div align=&quot;left&quot;&gt;Cunning: W&lt;/div&gt;&lt;div align=&quot;left&quot;&gt;Luck: V&lt;br&gt;&lt;/div&gt;" style="text;html=1;align=left;verticalAlign=middle;whiteSpace=wrap;rounded=0;" parent="1" vertex="1">
          <mxGeometry x="845" y="70" width="90" height="130" as="geometry" />
        </mxCell>
        <mxCell id="bTtCV00hiHCe_hMrs-O1-52" value="&lt;div align=&quot;left&quot;&gt;Party&lt;br&gt;&lt;/div&gt;&lt;div align=&quot;left&quot;&gt;&lt;br&gt;&lt;/div&gt;&lt;div&gt;Health: X/Y&lt;/div&gt;&lt;div&gt;Mana: Z/Q&lt;br&gt;&lt;/div&gt;" style="text;html=1;align=left;verticalAlign=middle;whiteSpace=wrap;rounded=0;" parent="1" vertex="1">
          <mxGeometry x="845" y="200" width="90" height="60" as="geometry" />
        </mxCell>
        <mxCell id="bTtCV00hiHCe_hMrs-O1-56" value="" style="rounded=0;whiteSpace=wrap;html=1;" parent="1" vertex="1">
          <mxGeometry x="850" y="300" width="80" height="30" as="geometry" />
        </mxCell>
        <mxCell id="bTtCV00hiHCe_hMrs-O1-57" value="Previous Character" style="text;html=1;align=center;verticalAlign=middle;whiteSpace=wrap;rounded=0;" parent="1" vertex="1">
          <mxGeometry x="850" y="300" width="80" height="30" as="geometry" />
        </mxCell>
        <mxCell id="bTtCV00hiHCe_hMrs-O1-55" value="" style="rounded=0;whiteSpace=wrap;html=1;" parent="1" vertex="1">
          <mxGeometry x="850" y="260" width="80" height="30" as="geometry" />
        </mxCell>
        <mxCell id="bTtCV00hiHCe_hMrs-O1-53" value="Next Character" style="text;html=1;align=center;verticalAlign=middle;whiteSpace=wrap;rounded=0;" parent="1" vertex="1">
          <mxGeometry x="850" y="260" width="80" height="30" as="geometry" />
        </mxCell>
        <mxCell id="bTtCV00hiHCe_hMrs-O1-60" value="" style="rounded=0;whiteSpace=wrap;html=1;" parent="1" vertex="1">
          <mxGeometry x="780" y="60" width="40" height="40" as="geometry" />
        </mxCell>
        <mxCell id="bTtCV00hiHCe_hMrs-O1-72" value="" style="rounded=0;whiteSpace=wrap;html=1;" parent="1" vertex="1">
          <mxGeometry x="730" y="60" width="40" height="40" as="geometry" />
        </mxCell>
        <mxCell id="bTtCV00hiHCe_hMrs-O1-73" value="" style="rounded=0;whiteSpace=wrap;html=1;" parent="1" vertex="1">
          <mxGeometry x="680" y="60" width="40" height="40" as="geometry" />
        </mxCell>
        <mxCell id="bTtCV00hiHCe_hMrs-O1-74" value="" style="rounded=0;whiteSpace=wrap;html=1;" parent="1" vertex="1">
          <mxGeometry x="630" y="60" width="40" height="40" as="geometry" />
        </mxCell>
        <mxCell id="bTtCV00hiHCe_hMrs-O1-76" value="" style="rounded=0;whiteSpace=wrap;html=1;" parent="1" vertex="1">
          <mxGeometry x="730" y="110" width="40" height="40" as="geometry" />
        </mxCell>
        <mxCell id="bTtCV00hiHCe_hMrs-O1-77" value="" style="rounded=0;whiteSpace=wrap;html=1;" parent="1" vertex="1">
          <mxGeometry x="680" y="110" width="40" height="40" as="geometry" />
        </mxCell>
        <mxCell id="bTtCV00hiHCe_hMrs-O1-78" value="" style="rounded=0;whiteSpace=wrap;html=1;" parent="1" vertex="1">
          <mxGeometry x="630" y="110" width="40" height="40" as="geometry" />
        </mxCell>
        <mxCell id="bTtCV00hiHCe_hMrs-O1-80" value="" style="rounded=0;whiteSpace=wrap;html=1;" parent="1" vertex="1">
          <mxGeometry x="730" y="160" width="40" height="40" as="geometry" />
        </mxCell>
        <mxCell id="bTtCV00hiHCe_hMrs-O1-81" value="" style="rounded=0;whiteSpace=wrap;html=1;" parent="1" vertex="1">
          <mxGeometry x="680" y="160" width="40" height="40" as="geometry" />
        </mxCell>
        <mxCell id="bTtCV00hiHCe_hMrs-O1-82" value="" style="rounded=0;whiteSpace=wrap;html=1;" parent="1" vertex="1">
          <mxGeometry x="630" y="160" width="40" height="40" as="geometry" />
        </mxCell>
        <mxCell id="bTtCV00hiHCe_hMrs-O1-87" value="Armor" style="text;html=1;align=center;verticalAlign=middle;whiteSpace=wrap;rounded=0;" parent="1" vertex="1">
          <mxGeometry x="545" y="65" width="80" height="30" as="geometry" />
        </mxCell>
        <mxCell id="bTtCV00hiHCe_hMrs-O1-88" value="Items" style="text;html=1;align=center;verticalAlign=middle;whiteSpace=wrap;rounded=0;" parent="1" vertex="1">
          <mxGeometry x="545" y="115" width="80" height="30" as="geometry" />
        </mxCell>
        <mxCell id="bTtCV00hiHCe_hMrs-O1-89" value="Spells" style="text;html=1;align=center;verticalAlign=middle;whiteSpace=wrap;rounded=0;" parent="1" vertex="1">
          <mxGeometry x="545" y="165" width="80" height="30" as="geometry" />
        </mxCell>
        <mxCell id="bTtCV00hiHCe_hMrs-O1-90" value="Icon" style="text;html=1;align=center;verticalAlign=middle;whiteSpace=wrap;rounded=0;" parent="1" vertex="1">
          <mxGeometry x="630" y="65" width="40" height="30" as="geometry" />
        </mxCell>
        <mxCell id="bTtCV00hiHCe_hMrs-O1-91" value="Icon" style="text;html=1;align=center;verticalAlign=middle;whiteSpace=wrap;rounded=0;" parent="1" vertex="1">
          <mxGeometry x="680" y="65" width="40" height="30" as="geometry" />
        </mxCell>
        <mxCell id="bTtCV00hiHCe_hMrs-O1-92" value="Icon" style="text;html=1;align=center;verticalAlign=middle;whiteSpace=wrap;rounded=0;" parent="1" vertex="1">
          <mxGeometry x="730" y="65" width="40" height="30" as="geometry" />
        </mxCell>
        <mxCell id="bTtCV00hiHCe_hMrs-O1-93" value="Icon" style="text;html=1;align=center;verticalAlign=middle;whiteSpace=wrap;rounded=0;" parent="1" vertex="1">
          <mxGeometry x="630" y="115" width="40" height="30" as="geometry" />
        </mxCell>
        <mxCell id="bTtCV00hiHCe_hMrs-O1-95" value="Icon" style="text;html=1;align=center;verticalAlign=middle;whiteSpace=wrap;rounded=0;" parent="1" vertex="1">
          <mxGeometry x="680" y="115" width="40" height="30" as="geometry" />
        </mxCell>
        <mxCell id="bTtCV00hiHCe_hMrs-O1-96" value="Icon" style="text;html=1;align=center;verticalAlign=middle;whiteSpace=wrap;rounded=0;" parent="1" vertex="1">
          <mxGeometry x="680" y="115" width="40" height="30" as="geometry" />
        </mxCell>
        <mxCell id="bTtCV00hiHCe_hMrs-O1-97" value="Icon" style="text;html=1;align=center;verticalAlign=middle;whiteSpace=wrap;rounded=0;" parent="1" vertex="1">
          <mxGeometry x="730" y="115" width="40" height="30" as="geometry" />
        </mxCell>
        <mxCell id="bTtCV00hiHCe_hMrs-O1-98" value="Icon" style="text;html=1;align=center;verticalAlign=middle;whiteSpace=wrap;rounded=0;" parent="1" vertex="1">
          <mxGeometry x="780" y="65" width="40" height="30" as="geometry" />
        </mxCell>
        <mxCell id="bTtCV00hiHCe_hMrs-O1-99" value="Icon" style="text;html=1;align=center;verticalAlign=middle;whiteSpace=wrap;rounded=0;" parent="1" vertex="1">
          <mxGeometry x="730" y="165" width="40" height="30" as="geometry" />
        </mxCell>
        <mxCell id="bTtCV00hiHCe_hMrs-O1-100" value="Icon" style="text;html=1;align=center;verticalAlign=middle;whiteSpace=wrap;rounded=0;" parent="1" vertex="1">
          <mxGeometry x="680" y="165" width="40" height="30" as="geometry" />
        </mxCell>
        <mxCell id="bTtCV00hiHCe_hMrs-O1-101" value="Icon" style="text;html=1;align=center;verticalAlign=middle;whiteSpace=wrap;rounded=0;" parent="1" vertex="1">
          <mxGeometry x="630" y="165" width="40" height="30" as="geometry" />
        </mxCell>
        <mxCell id="bTtCV00hiHCe_hMrs-O1-174" value="" style="rounded=0;whiteSpace=wrap;html=1;" parent="1" vertex="1">
          <mxGeometry x="550" y="240" width="40" height="40" as="geometry" />
        </mxCell>
        <mxCell id="bTtCV00hiHCe_hMrs-O1-175" value="Icon" style="text;html=1;align=center;verticalAlign=middle;whiteSpace=wrap;rounded=0;" parent="1" vertex="1">
          <mxGeometry x="550" y="245" width="40" height="30" as="geometry" />
        </mxCell>
        <mxCell id="bTtCV00hiHCe_hMrs-O1-176" value="" style="rounded=0;whiteSpace=wrap;html=1;" parent="1" vertex="1">
          <mxGeometry x="590" y="240" width="40" height="40" as="geometry" />
        </mxCell>
        <mxCell id="bTtCV00hiHCe_hMrs-O1-177" value="Icon" style="text;html=1;align=center;verticalAlign=middle;whiteSpace=wrap;rounded=0;" parent="1" vertex="1">
          <mxGeometry x="590" y="245" width="40" height="30" as="geometry" />
        </mxCell>
        <mxCell id="bTtCV00hiHCe_hMrs-O1-178" value="" style="rounded=0;whiteSpace=wrap;html=1;" parent="1" vertex="1">
          <mxGeometry x="630" y="240" width="40" height="40" as="geometry" />
        </mxCell>
        <mxCell id="bTtCV00hiHCe_hMrs-O1-179" value="Icon" style="text;html=1;align=center;verticalAlign=middle;whiteSpace=wrap;rounded=0;" parent="1" vertex="1">
          <mxGeometry x="630" y="245" width="40" height="30" as="geometry" />
        </mxCell>
        <mxCell id="bTtCV00hiHCe_hMrs-O1-180" value="" style="rounded=0;whiteSpace=wrap;html=1;" parent="1" vertex="1">
          <mxGeometry x="670" y="240" width="40" height="40" as="geometry" />
        </mxCell>
        <mxCell id="bTtCV00hiHCe_hMrs-O1-181" value="Icon" style="text;html=1;align=center;verticalAlign=middle;whiteSpace=wrap;rounded=0;" parent="1" vertex="1">
          <mxGeometry x="670" y="245" width="40" height="30" as="geometry" />
        </mxCell>
        <mxCell id="bTtCV00hiHCe_hMrs-O1-182" value="" style="rounded=0;whiteSpace=wrap;html=1;" parent="1" vertex="1">
          <mxGeometry x="710" y="240" width="40" height="40" as="geometry" />
        </mxCell>
        <mxCell id="bTtCV00hiHCe_hMrs-O1-183" value="Icon" style="text;html=1;align=center;verticalAlign=middle;whiteSpace=wrap;rounded=0;" parent="1" vertex="1">
          <mxGeometry x="710" y="245" width="40" height="30" as="geometry" />
        </mxCell>
        <mxCell id="bTtCV00hiHCe_hMrs-O1-184" value="" style="rounded=0;whiteSpace=wrap;html=1;" parent="1" vertex="1">
          <mxGeometry x="750" y="240" width="40" height="40" as="geometry" />
        </mxCell>
        <mxCell id="bTtCV00hiHCe_hMrs-O1-185" value="Icon" style="text;html=1;align=center;verticalAlign=middle;whiteSpace=wrap;rounded=0;" parent="1" vertex="1">
          <mxGeometry x="750" y="245" width="40" height="30" as="geometry" />
        </mxCell>
        <mxCell id="bTtCV00hiHCe_hMrs-O1-188" value="" style="rounded=0;whiteSpace=wrap;html=1;" parent="1" vertex="1">
          <mxGeometry x="550" y="280" width="40" height="40" as="geometry" />
        </mxCell>
        <mxCell id="bTtCV00hiHCe_hMrs-O1-189" value="Icon" style="text;html=1;align=center;verticalAlign=middle;whiteSpace=wrap;rounded=0;" parent="1" vertex="1">
          <mxGeometry x="550" y="285" width="40" height="30" as="geometry" />
        </mxCell>
        <mxCell id="bTtCV00hiHCe_hMrs-O1-190" value="" style="rounded=0;whiteSpace=wrap;html=1;" parent="1" vertex="1">
          <mxGeometry x="590" y="280" width="40" height="40" as="geometry" />
        </mxCell>
        <mxCell id="bTtCV00hiHCe_hMrs-O1-191" value="Icon" style="text;html=1;align=center;verticalAlign=middle;whiteSpace=wrap;rounded=0;" parent="1" vertex="1">
          <mxGeometry x="590" y="285" width="40" height="30" as="geometry" />
        </mxCell>
        <mxCell id="bTtCV00hiHCe_hMrs-O1-192" value="" style="rounded=0;whiteSpace=wrap;html=1;" parent="1" vertex="1">
          <mxGeometry x="630" y="280" width="40" height="40" as="geometry" />
        </mxCell>
        <mxCell id="bTtCV00hiHCe_hMrs-O1-193" value="Icon" style="text;html=1;align=center;verticalAlign=middle;whiteSpace=wrap;rounded=0;" parent="1" vertex="1">
          <mxGeometry x="630" y="285" width="40" height="30" as="geometry" />
        </mxCell>
        <mxCell id="bTtCV00hiHCe_hMrs-O1-194" value="" style="rounded=0;whiteSpace=wrap;html=1;" parent="1" vertex="1">
          <mxGeometry x="670" y="280" width="40" height="40" as="geometry" />
        </mxCell>
        <mxCell id="bTtCV00hiHCe_hMrs-O1-195" value="Icon" style="text;html=1;align=center;verticalAlign=middle;whiteSpace=wrap;rounded=0;" parent="1" vertex="1">
          <mxGeometry x="670" y="285" width="40" height="30" as="geometry" />
        </mxCell>
        <mxCell id="bTtCV00hiHCe_hMrs-O1-196" value="" style="rounded=0;whiteSpace=wrap;html=1;" parent="1" vertex="1">
          <mxGeometry x="710" y="280" width="40" height="40" as="geometry" />
        </mxCell>
        <mxCell id="bTtCV00hiHCe_hMrs-O1-197" value="Icon" style="text;html=1;align=center;verticalAlign=middle;whiteSpace=wrap;rounded=0;" parent="1" vertex="1">
          <mxGeometry x="710" y="285" width="40" height="30" as="geometry" />
        </mxCell>
        <mxCell id="bTtCV00hiHCe_hMrs-O1-198" value="" style="rounded=0;whiteSpace=wrap;html=1;" parent="1" vertex="1">
          <mxGeometry x="750" y="280" width="40" height="40" as="geometry" />
        </mxCell>
        <mxCell id="bTtCV00hiHCe_hMrs-O1-199" value="Icon" style="text;html=1;align=center;verticalAlign=middle;whiteSpace=wrap;rounded=0;" parent="1" vertex="1">
          <mxGeometry x="750" y="285" width="40" height="30" as="geometry" />
        </mxCell>
        <mxCell id="bTtCV00hiHCe_hMrs-O1-214" value="" style="rounded=0;whiteSpace=wrap;html=1;" parent="1" vertex="1">
          <mxGeometry x="790" y="240" width="40" height="40" as="geometry" />
        </mxCell>
        <mxCell id="bTtCV00hiHCe_hMrs-O1-215" value="Next" style="text;html=1;align=center;verticalAlign=middle;whiteSpace=wrap;rounded=0;" parent="1" vertex="1">
          <mxGeometry x="790" y="245" width="40" height="30" as="geometry" />
        </mxCell>
        <mxCell id="bTtCV00hiHCe_hMrs-O1-216" value="" style="rounded=0;whiteSpace=wrap;html=1;" parent="1" vertex="1">
          <mxGeometry x="790" y="280" width="40" height="40" as="geometry" />
        </mxCell>
        <mxCell id="bTtCV00hiHCe_hMrs-O1-217" value="Prev" style="text;html=1;align=center;verticalAlign=middle;whiteSpace=wrap;rounded=0;" parent="1" vertex="1">
          <mxGeometry x="790" y="285" width="40" height="30" as="geometry" />
        </mxCell>
        <mxCell id="EECY_MYsEY5438IXKxLb-1" value="" style="rounded=0;whiteSpace=wrap;html=1;" vertex="1" parent="1">
          <mxGeometry x="40" y="40" width="400" height="400" as="geometry" />
        </mxCell>
        <mxCell id="EECY_MYsEY5438IXKxLb-2" value="" style="endArrow=none;html=1;rounded=0;exitX=0;exitY=0.75;exitDx=0;exitDy=0;entryX=1;entryY=0.75;entryDx=0;entryDy=0;" edge="1" parent="1" source="EECY_MYsEY5438IXKxLb-1" target="EECY_MYsEY5438IXKxLb-1">
          <mxGeometry width="50" height="50" relative="1" as="geometry">
            <mxPoint x="222.5" y="320" as="sourcePoint" />
            <mxPoint x="272.5" y="270" as="targetPoint" />
          </mxGeometry>
        </mxCell>
        <mxCell id="EECY_MYsEY5438IXKxLb-3" value="" style="endArrow=none;html=1;rounded=0;entryX=0.75;entryY=0;entryDx=0;entryDy=0;exitX=0.75;exitY=1;exitDx=0;exitDy=0;" edge="1" parent="1" source="EECY_MYsEY5438IXKxLb-1" target="EECY_MYsEY5438IXKxLb-1">
          <mxGeometry width="50" height="50" relative="1" as="geometry">
            <mxPoint x="332.5" y="190" as="sourcePoint" />
            <mxPoint x="382.5" y="140" as="targetPoint" />
          </mxGeometry>
        </mxCell>
        <mxCell id="EECY_MYsEY5438IXKxLb-4" value="&lt;b style=&quot;font-size: 15px;&quot;&gt;Item info&lt;br&gt;&lt;/b&gt;" style="text;html=1;align=center;verticalAlign=middle;whiteSpace=wrap;rounded=0;" vertex="1" parent="1">
          <mxGeometry x="127.5" y="365" width="130" height="50" as="geometry" />
        </mxCell>
        <mxCell id="EECY_MYsEY5438IXKxLb-5" value="" style="rounded=0;whiteSpace=wrap;html=1;" vertex="1" parent="1">
          <mxGeometry x="352.5" y="350" width="80" height="20" as="geometry" />
        </mxCell>
        <mxCell id="EECY_MYsEY5438IXKxLb-6" value="Equipment" style="text;html=1;align=center;verticalAlign=middle;whiteSpace=wrap;rounded=0;" vertex="1" parent="1">
          <mxGeometry x="352.5" y="350" width="80" height="20" as="geometry" />
        </mxCell>
        <mxCell id="EECY_MYsEY5438IXKxLb-7" value="" style="rounded=0;whiteSpace=wrap;html=1;" vertex="1" parent="1">
          <mxGeometry x="352.5" y="380" width="80" height="20" as="geometry" />
        </mxCell>
        <mxCell id="EECY_MYsEY5438IXKxLb-8" value="Backpack" style="text;html=1;align=center;verticalAlign=middle;whiteSpace=wrap;rounded=0;" vertex="1" parent="1">
          <mxGeometry x="352.5" y="380" width="80" height="20" as="geometry" />
        </mxCell>
        <mxCell id="EECY_MYsEY5438IXKxLb-9" value="" style="rounded=0;whiteSpace=wrap;html=1;" vertex="1" parent="1">
          <mxGeometry x="352.5" y="410" width="80" height="20" as="geometry" />
        </mxCell>
        <mxCell id="EECY_MYsEY5438IXKxLb-10" value="Close" style="text;html=1;align=center;verticalAlign=middle;whiteSpace=wrap;rounded=0;" vertex="1" parent="1">
          <mxGeometry x="352.5" y="410" width="80" height="20" as="geometry" />
        </mxCell>
        <mxCell id="EECY_MYsEY5438IXKxLb-11" value="&lt;b&gt;&lt;font style=&quot;font-size: 16px;&quot;&gt;Info&lt;/font&gt;&lt;/b&gt;" style="text;html=1;align=center;verticalAlign=middle;whiteSpace=wrap;rounded=0;" vertex="1" parent="1">
          <mxGeometry x="345" y="40" width="95" height="30" as="geometry" />
        </mxCell>
        <mxCell id="EECY_MYsEY5438IXKxLb-13" value="&lt;div align=&quot;left&quot;&gt;Party&lt;br&gt;&lt;/div&gt;&lt;div align=&quot;left&quot;&gt;&lt;br&gt;&lt;/div&gt;&lt;div&gt;Health: X/Y&lt;/div&gt;&lt;div&gt;Mana: Z/Q&lt;br&gt;&lt;/div&gt;" style="text;html=1;align=left;verticalAlign=middle;whiteSpace=wrap;rounded=0;" vertex="1" parent="1">
          <mxGeometry x="347.5" y="70" width="90" height="60" as="geometry" />
        </mxCell>
        <mxCell id="EECY_MYsEY5438IXKxLb-14" value="" style="rounded=0;whiteSpace=wrap;html=1;" vertex="1" parent="1">
          <mxGeometry x="352.5" y="220" width="80" height="20" as="geometry" />
        </mxCell>
        <mxCell id="EECY_MYsEY5438IXKxLb-15" value="Use item" style="text;html=1;align=center;verticalAlign=middle;whiteSpace=wrap;rounded=0;" vertex="1" parent="1">
          <mxGeometry x="352.5" y="220" width="80" height="20" as="geometry" />
        </mxCell>
        <mxCell id="EECY_MYsEY5438IXKxLb-70" value="" style="rounded=0;whiteSpace=wrap;html=1;" vertex="1" parent="1">
          <mxGeometry x="52.5" y="80" width="40" height="40" as="geometry" />
        </mxCell>
        <mxCell id="EECY_MYsEY5438IXKxLb-71" value="Icon" style="text;html=1;align=center;verticalAlign=middle;whiteSpace=wrap;rounded=0;" vertex="1" parent="1">
          <mxGeometry x="52.5" y="85" width="40" height="30" as="geometry" />
        </mxCell>
        <mxCell id="EECY_MYsEY5438IXKxLb-72" value="" style="rounded=0;whiteSpace=wrap;html=1;" vertex="1" parent="1">
          <mxGeometry x="92.5" y="80" width="40" height="40" as="geometry" />
        </mxCell>
        <mxCell id="EECY_MYsEY5438IXKxLb-73" value="Icon" style="text;html=1;align=center;verticalAlign=middle;whiteSpace=wrap;rounded=0;" vertex="1" parent="1">
          <mxGeometry x="92.5" y="85" width="40" height="30" as="geometry" />
        </mxCell>
        <mxCell id="EECY_MYsEY5438IXKxLb-74" value="" style="rounded=0;whiteSpace=wrap;html=1;" vertex="1" parent="1">
          <mxGeometry x="132.5" y="80" width="40" height="40" as="geometry" />
        </mxCell>
        <mxCell id="EECY_MYsEY5438IXKxLb-75" value="Icon" style="text;html=1;align=center;verticalAlign=middle;whiteSpace=wrap;rounded=0;" vertex="1" parent="1">
          <mxGeometry x="132.5" y="85" width="40" height="30" as="geometry" />
        </mxCell>
        <mxCell id="EECY_MYsEY5438IXKxLb-76" value="" style="rounded=0;whiteSpace=wrap;html=1;" vertex="1" parent="1">
          <mxGeometry x="172.5" y="80" width="40" height="40" as="geometry" />
        </mxCell>
        <mxCell id="EECY_MYsEY5438IXKxLb-77" value="Icon" style="text;html=1;align=center;verticalAlign=middle;whiteSpace=wrap;rounded=0;" vertex="1" parent="1">
          <mxGeometry x="172.5" y="85" width="40" height="30" as="geometry" />
        </mxCell>
        <mxCell id="EECY_MYsEY5438IXKxLb-78" value="" style="rounded=0;whiteSpace=wrap;html=1;" vertex="1" parent="1">
          <mxGeometry x="212.5" y="80" width="40" height="40" as="geometry" />
        </mxCell>
        <mxCell id="EECY_MYsEY5438IXKxLb-79" value="Icon" style="text;html=1;align=center;verticalAlign=middle;whiteSpace=wrap;rounded=0;" vertex="1" parent="1">
          <mxGeometry x="212.5" y="85" width="40" height="30" as="geometry" />
        </mxCell>
        <mxCell id="EECY_MYsEY5438IXKxLb-80" value="" style="rounded=0;whiteSpace=wrap;html=1;" vertex="1" parent="1">
          <mxGeometry x="252.5" y="80" width="40" height="40" as="geometry" />
        </mxCell>
        <mxCell id="EECY_MYsEY5438IXKxLb-81" value="Icon" style="text;html=1;align=center;verticalAlign=middle;whiteSpace=wrap;rounded=0;" vertex="1" parent="1">
          <mxGeometry x="252.5" y="85" width="40" height="30" as="geometry" />
        </mxCell>
        <mxCell id="EECY_MYsEY5438IXKxLb-82" value="" style="rounded=0;whiteSpace=wrap;html=1;" vertex="1" parent="1">
          <mxGeometry x="52.5" y="120" width="40" height="40" as="geometry" />
        </mxCell>
        <mxCell id="EECY_MYsEY5438IXKxLb-83" value="Icon" style="text;html=1;align=center;verticalAlign=middle;whiteSpace=wrap;rounded=0;" vertex="1" parent="1">
          <mxGeometry x="52.5" y="125" width="40" height="30" as="geometry" />
        </mxCell>
        <mxCell id="EECY_MYsEY5438IXKxLb-84" value="" style="rounded=0;whiteSpace=wrap;html=1;" vertex="1" parent="1">
          <mxGeometry x="92.5" y="120" width="40" height="40" as="geometry" />
        </mxCell>
        <mxCell id="EECY_MYsEY5438IXKxLb-85" value="Icon" style="text;html=1;align=center;verticalAlign=middle;whiteSpace=wrap;rounded=0;" vertex="1" parent="1">
          <mxGeometry x="92.5" y="125" width="40" height="30" as="geometry" />
        </mxCell>
        <mxCell id="EECY_MYsEY5438IXKxLb-86" value="" style="rounded=0;whiteSpace=wrap;html=1;" vertex="1" parent="1">
          <mxGeometry x="132.5" y="120" width="40" height="40" as="geometry" />
        </mxCell>
        <mxCell id="EECY_MYsEY5438IXKxLb-87" value="Icon" style="text;html=1;align=center;verticalAlign=middle;whiteSpace=wrap;rounded=0;" vertex="1" parent="1">
          <mxGeometry x="132.5" y="125" width="40" height="30" as="geometry" />
        </mxCell>
        <mxCell id="EECY_MYsEY5438IXKxLb-88" value="" style="rounded=0;whiteSpace=wrap;html=1;" vertex="1" parent="1">
          <mxGeometry x="172.5" y="120" width="40" height="40" as="geometry" />
        </mxCell>
        <mxCell id="EECY_MYsEY5438IXKxLb-89" value="Icon" style="text;html=1;align=center;verticalAlign=middle;whiteSpace=wrap;rounded=0;" vertex="1" parent="1">
          <mxGeometry x="172.5" y="125" width="40" height="30" as="geometry" />
        </mxCell>
        <mxCell id="EECY_MYsEY5438IXKxLb-90" value="" style="rounded=0;whiteSpace=wrap;html=1;" vertex="1" parent="1">
          <mxGeometry x="212.5" y="120" width="40" height="40" as="geometry" />
        </mxCell>
        <mxCell id="EECY_MYsEY5438IXKxLb-91" value="Icon" style="text;html=1;align=center;verticalAlign=middle;whiteSpace=wrap;rounded=0;" vertex="1" parent="1">
          <mxGeometry x="212.5" y="125" width="40" height="30" as="geometry" />
        </mxCell>
        <mxCell id="EECY_MYsEY5438IXKxLb-92" value="" style="rounded=0;whiteSpace=wrap;html=1;" vertex="1" parent="1">
          <mxGeometry x="252.5" y="120" width="40" height="40" as="geometry" />
        </mxCell>
        <mxCell id="EECY_MYsEY5438IXKxLb-93" value="Icon" style="text;html=1;align=center;verticalAlign=middle;whiteSpace=wrap;rounded=0;" vertex="1" parent="1">
          <mxGeometry x="252.5" y="125" width="40" height="30" as="geometry" />
        </mxCell>
        <mxCell id="EECY_MYsEY5438IXKxLb-98" value="" style="rounded=0;whiteSpace=wrap;html=1;" vertex="1" parent="1">
          <mxGeometry x="372.5" y="165" width="40" height="40" as="geometry" />
        </mxCell>
        <mxCell id="EECY_MYsEY5438IXKxLb-99" value="Icon" style="text;html=1;align=center;verticalAlign=middle;whiteSpace=wrap;rounded=0;" vertex="1" parent="1">
          <mxGeometry x="372.5" y="170" width="40" height="30" as="geometry" />
        </mxCell>
        <mxCell id="EECY_MYsEY5438IXKxLb-100" value="&lt;b&gt;&lt;font style=&quot;font-size: 16px;&quot;&gt;Backpack&lt;/font&gt;&lt;/b&gt;" style="text;html=1;align=center;verticalAlign=middle;whiteSpace=wrap;rounded=0;" vertex="1" parent="1">
          <mxGeometry x="145" y="40" width="95" height="30" as="geometry" />
        </mxCell>
        <mxCell id="EECY_MYsEY5438IXKxLb-101" value="" style="rounded=0;whiteSpace=wrap;html=1;" vertex="1" parent="1">
          <mxGeometry x="52.5" y="160" width="40" height="40" as="geometry" />
        </mxCell>
        <mxCell id="EECY_MYsEY5438IXKxLb-102" value="Icon" style="text;html=1;align=center;verticalAlign=middle;whiteSpace=wrap;rounded=0;" vertex="1" parent="1">
          <mxGeometry x="52.5" y="165" width="40" height="30" as="geometry" />
        </mxCell>
        <mxCell id="EECY_MYsEY5438IXKxLb-103" value="" style="rounded=0;whiteSpace=wrap;html=1;" vertex="1" parent="1">
          <mxGeometry x="92.5" y="160" width="40" height="40" as="geometry" />
        </mxCell>
        <mxCell id="EECY_MYsEY5438IXKxLb-104" value="Icon" style="text;html=1;align=center;verticalAlign=middle;whiteSpace=wrap;rounded=0;" vertex="1" parent="1">
          <mxGeometry x="92.5" y="165" width="40" height="30" as="geometry" />
        </mxCell>
        <mxCell id="EECY_MYsEY5438IXKxLb-105" value="" style="rounded=0;whiteSpace=wrap;html=1;" vertex="1" parent="1">
          <mxGeometry x="132.5" y="160" width="40" height="40" as="geometry" />
        </mxCell>
        <mxCell id="EECY_MYsEY5438IXKxLb-106" value="Icon" style="text;html=1;align=center;verticalAlign=middle;whiteSpace=wrap;rounded=0;" vertex="1" parent="1">
          <mxGeometry x="132.5" y="165" width="40" height="30" as="geometry" />
        </mxCell>
        <mxCell id="EECY_MYsEY5438IXKxLb-107" value="" style="rounded=0;whiteSpace=wrap;html=1;" vertex="1" parent="1">
          <mxGeometry x="172.5" y="160" width="40" height="40" as="geometry" />
        </mxCell>
        <mxCell id="EECY_MYsEY5438IXKxLb-108" value="Icon" style="text;html=1;align=center;verticalAlign=middle;whiteSpace=wrap;rounded=0;" vertex="1" parent="1">
          <mxGeometry x="172.5" y="165" width="40" height="30" as="geometry" />
        </mxCell>
        <mxCell id="EECY_MYsEY5438IXKxLb-109" value="" style="rounded=0;whiteSpace=wrap;html=1;" vertex="1" parent="1">
          <mxGeometry x="212.5" y="160" width="40" height="40" as="geometry" />
        </mxCell>
        <mxCell id="EECY_MYsEY5438IXKxLb-110" value="Icon" style="text;html=1;align=center;verticalAlign=middle;whiteSpace=wrap;rounded=0;" vertex="1" parent="1">
          <mxGeometry x="212.5" y="165" width="40" height="30" as="geometry" />
        </mxCell>
        <mxCell id="EECY_MYsEY5438IXKxLb-111" value="" style="rounded=0;whiteSpace=wrap;html=1;" vertex="1" parent="1">
          <mxGeometry x="252.5" y="160" width="40" height="40" as="geometry" />
        </mxCell>
        <mxCell id="EECY_MYsEY5438IXKxLb-112" value="Icon" style="text;html=1;align=center;verticalAlign=middle;whiteSpace=wrap;rounded=0;" vertex="1" parent="1">
          <mxGeometry x="252.5" y="165" width="40" height="30" as="geometry" />
        </mxCell>
        <mxCell id="EECY_MYsEY5438IXKxLb-113" value="" style="rounded=0;whiteSpace=wrap;html=1;" vertex="1" parent="1">
          <mxGeometry x="52.5" y="200" width="40" height="40" as="geometry" />
        </mxCell>
        <mxCell id="EECY_MYsEY5438IXKxLb-114" value="Icon" style="text;html=1;align=center;verticalAlign=middle;whiteSpace=wrap;rounded=0;" vertex="1" parent="1">
          <mxGeometry x="52.5" y="205" width="40" height="30" as="geometry" />
        </mxCell>
        <mxCell id="EECY_MYsEY5438IXKxLb-115" value="" style="rounded=0;whiteSpace=wrap;html=1;" vertex="1" parent="1">
          <mxGeometry x="92.5" y="200" width="40" height="40" as="geometry" />
        </mxCell>
        <mxCell id="EECY_MYsEY5438IXKxLb-116" value="Icon" style="text;html=1;align=center;verticalAlign=middle;whiteSpace=wrap;rounded=0;" vertex="1" parent="1">
          <mxGeometry x="92.5" y="205" width="40" height="30" as="geometry" />
        </mxCell>
        <mxCell id="EECY_MYsEY5438IXKxLb-117" value="" style="rounded=0;whiteSpace=wrap;html=1;" vertex="1" parent="1">
          <mxGeometry x="132.5" y="200" width="40" height="40" as="geometry" />
        </mxCell>
        <mxCell id="EECY_MYsEY5438IXKxLb-118" value="Icon" style="text;html=1;align=center;verticalAlign=middle;whiteSpace=wrap;rounded=0;" vertex="1" parent="1">
          <mxGeometry x="132.5" y="205" width="40" height="30" as="geometry" />
        </mxCell>
        <mxCell id="EECY_MYsEY5438IXKxLb-119" value="" style="rounded=0;whiteSpace=wrap;html=1;" vertex="1" parent="1">
          <mxGeometry x="172.5" y="200" width="40" height="40" as="geometry" />
        </mxCell>
        <mxCell id="EECY_MYsEY5438IXKxLb-120" value="Icon" style="text;html=1;align=center;verticalAlign=middle;whiteSpace=wrap;rounded=0;" vertex="1" parent="1">
          <mxGeometry x="172.5" y="205" width="40" height="30" as="geometry" />
        </mxCell>
        <mxCell id="EECY_MYsEY5438IXKxLb-121" value="" style="rounded=0;whiteSpace=wrap;html=1;" vertex="1" parent="1">
          <mxGeometry x="212.5" y="200" width="40" height="40" as="geometry" />
        </mxCell>
        <mxCell id="EECY_MYsEY5438IXKxLb-122" value="Icon" style="text;html=1;align=center;verticalAlign=middle;whiteSpace=wrap;rounded=0;" vertex="1" parent="1">
          <mxGeometry x="212.5" y="205" width="40" height="30" as="geometry" />
        </mxCell>
        <mxCell id="EECY_MYsEY5438IXKxLb-123" value="" style="rounded=0;whiteSpace=wrap;html=1;" vertex="1" parent="1">
          <mxGeometry x="252.5" y="200" width="40" height="40" as="geometry" />
        </mxCell>
        <mxCell id="EECY_MYsEY5438IXKxLb-124" value="Icon" style="text;html=1;align=center;verticalAlign=middle;whiteSpace=wrap;rounded=0;" vertex="1" parent="1">
          <mxGeometry x="252.5" y="205" width="40" height="30" as="geometry" />
        </mxCell>
        <mxCell id="EECY_MYsEY5438IXKxLb-129" value="" style="rounded=0;whiteSpace=wrap;html=1;" vertex="1" parent="1">
          <mxGeometry x="52.5" y="240" width="40" height="40" as="geometry" />
        </mxCell>
        <mxCell id="EECY_MYsEY5438IXKxLb-130" value="Icon" style="text;html=1;align=center;verticalAlign=middle;whiteSpace=wrap;rounded=0;" vertex="1" parent="1">
          <mxGeometry x="52.5" y="245" width="40" height="30" as="geometry" />
        </mxCell>
        <mxCell id="EECY_MYsEY5438IXKxLb-131" value="" style="rounded=0;whiteSpace=wrap;html=1;" vertex="1" parent="1">
          <mxGeometry x="92.5" y="240" width="40" height="40" as="geometry" />
        </mxCell>
        <mxCell id="EECY_MYsEY5438IXKxLb-132" value="Icon" style="text;html=1;align=center;verticalAlign=middle;whiteSpace=wrap;rounded=0;" vertex="1" parent="1">
          <mxGeometry x="92.5" y="245" width="40" height="30" as="geometry" />
        </mxCell>
        <mxCell id="EECY_MYsEY5438IXKxLb-133" value="" style="rounded=0;whiteSpace=wrap;html=1;" vertex="1" parent="1">
          <mxGeometry x="132.5" y="240" width="40" height="40" as="geometry" />
        </mxCell>
        <mxCell id="EECY_MYsEY5438IXKxLb-134" value="Icon" style="text;html=1;align=center;verticalAlign=middle;whiteSpace=wrap;rounded=0;" vertex="1" parent="1">
          <mxGeometry x="132.5" y="245" width="40" height="30" as="geometry" />
        </mxCell>
        <mxCell id="EECY_MYsEY5438IXKxLb-135" value="" style="rounded=0;whiteSpace=wrap;html=1;" vertex="1" parent="1">
          <mxGeometry x="172.5" y="240" width="40" height="40" as="geometry" />
        </mxCell>
        <mxCell id="EECY_MYsEY5438IXKxLb-136" value="Icon" style="text;html=1;align=center;verticalAlign=middle;whiteSpace=wrap;rounded=0;" vertex="1" parent="1">
          <mxGeometry x="172.5" y="245" width="40" height="30" as="geometry" />
        </mxCell>
        <mxCell id="EECY_MYsEY5438IXKxLb-137" value="" style="rounded=0;whiteSpace=wrap;html=1;" vertex="1" parent="1">
          <mxGeometry x="212.5" y="240" width="40" height="40" as="geometry" />
        </mxCell>
        <mxCell id="EECY_MYsEY5438IXKxLb-138" value="Icon" style="text;html=1;align=center;verticalAlign=middle;whiteSpace=wrap;rounded=0;" vertex="1" parent="1">
          <mxGeometry x="212.5" y="245" width="40" height="30" as="geometry" />
        </mxCell>
        <mxCell id="EECY_MYsEY5438IXKxLb-139" value="" style="rounded=0;whiteSpace=wrap;html=1;" vertex="1" parent="1">
          <mxGeometry x="252.5" y="240" width="40" height="40" as="geometry" />
        </mxCell>
        <mxCell id="EECY_MYsEY5438IXKxLb-140" value="Icon" style="text;html=1;align=center;verticalAlign=middle;whiteSpace=wrap;rounded=0;" vertex="1" parent="1">
          <mxGeometry x="252.5" y="245" width="40" height="30" as="geometry" />
        </mxCell>
        <mxCell id="EECY_MYsEY5438IXKxLb-141" value="" style="rounded=0;whiteSpace=wrap;html=1;" vertex="1" parent="1">
          <mxGeometry x="52.5" y="280" width="40" height="40" as="geometry" />
        </mxCell>
        <mxCell id="EECY_MYsEY5438IXKxLb-142" value="Icon" style="text;html=1;align=center;verticalAlign=middle;whiteSpace=wrap;rounded=0;" vertex="1" parent="1">
          <mxGeometry x="52.5" y="285" width="40" height="30" as="geometry" />
        </mxCell>
        <mxCell id="EECY_MYsEY5438IXKxLb-143" value="" style="rounded=0;whiteSpace=wrap;html=1;" vertex="1" parent="1">
          <mxGeometry x="92.5" y="280" width="40" height="40" as="geometry" />
        </mxCell>
        <mxCell id="EECY_MYsEY5438IXKxLb-144" value="Icon" style="text;html=1;align=center;verticalAlign=middle;whiteSpace=wrap;rounded=0;" vertex="1" parent="1">
          <mxGeometry x="92.5" y="285" width="40" height="30" as="geometry" />
        </mxCell>
        <mxCell id="EECY_MYsEY5438IXKxLb-145" value="" style="rounded=0;whiteSpace=wrap;html=1;" vertex="1" parent="1">
          <mxGeometry x="132.5" y="280" width="40" height="40" as="geometry" />
        </mxCell>
        <mxCell id="EECY_MYsEY5438IXKxLb-146" value="Icon" style="text;html=1;align=center;verticalAlign=middle;whiteSpace=wrap;rounded=0;" vertex="1" parent="1">
          <mxGeometry x="132.5" y="285" width="40" height="30" as="geometry" />
        </mxCell>
        <mxCell id="EECY_MYsEY5438IXKxLb-147" value="" style="rounded=0;whiteSpace=wrap;html=1;" vertex="1" parent="1">
          <mxGeometry x="172.5" y="280" width="40" height="40" as="geometry" />
        </mxCell>
        <mxCell id="EECY_MYsEY5438IXKxLb-148" value="Icon" style="text;html=1;align=center;verticalAlign=middle;whiteSpace=wrap;rounded=0;" vertex="1" parent="1">
          <mxGeometry x="172.5" y="285" width="40" height="30" as="geometry" />
        </mxCell>
        <mxCell id="EECY_MYsEY5438IXKxLb-149" value="" style="rounded=0;whiteSpace=wrap;html=1;" vertex="1" parent="1">
          <mxGeometry x="212.5" y="280" width="40" height="40" as="geometry" />
        </mxCell>
        <mxCell id="EECY_MYsEY5438IXKxLb-150" value="Icon" style="text;html=1;align=center;verticalAlign=middle;whiteSpace=wrap;rounded=0;" vertex="1" parent="1">
          <mxGeometry x="212.5" y="285" width="40" height="30" as="geometry" />
        </mxCell>
        <mxCell id="EECY_MYsEY5438IXKxLb-151" value="" style="rounded=0;whiteSpace=wrap;html=1;" vertex="1" parent="1">
          <mxGeometry x="252.5" y="280" width="40" height="40" as="geometry" />
        </mxCell>
        <mxCell id="EECY_MYsEY5438IXKxLb-152" value="Icon" style="text;html=1;align=center;verticalAlign=middle;whiteSpace=wrap;rounded=0;" vertex="1" parent="1">
          <mxGeometry x="252.5" y="285" width="40" height="30" as="geometry" />
        </mxCell>
        <mxCell id="EECY_MYsEY5438IXKxLb-157" value="" style="rounded=0;whiteSpace=wrap;html=1;" vertex="1" parent="1">
          <mxGeometry x="292.5" y="80" width="40" height="40" as="geometry" />
        </mxCell>
        <mxCell id="EECY_MYsEY5438IXKxLb-158" value="Icon" style="text;html=1;align=center;verticalAlign=middle;whiteSpace=wrap;rounded=0;" vertex="1" parent="1">
          <mxGeometry x="292.5" y="85" width="40" height="30" as="geometry" />
        </mxCell>
        <mxCell id="EECY_MYsEY5438IXKxLb-159" value="" style="rounded=0;whiteSpace=wrap;html=1;" vertex="1" parent="1">
          <mxGeometry x="292.5" y="120" width="40" height="40" as="geometry" />
        </mxCell>
        <mxCell id="EECY_MYsEY5438IXKxLb-160" value="Icon" style="text;html=1;align=center;verticalAlign=middle;whiteSpace=wrap;rounded=0;" vertex="1" parent="1">
          <mxGeometry x="292.5" y="125" width="40" height="30" as="geometry" />
        </mxCell>
        <mxCell id="EECY_MYsEY5438IXKxLb-161" value="" style="rounded=0;whiteSpace=wrap;html=1;" vertex="1" parent="1">
          <mxGeometry x="292.5" y="160" width="40" height="40" as="geometry" />
        </mxCell>
        <mxCell id="EECY_MYsEY5438IXKxLb-162" value="Icon" style="text;html=1;align=center;verticalAlign=middle;whiteSpace=wrap;rounded=0;" vertex="1" parent="1">
          <mxGeometry x="292.5" y="165" width="40" height="30" as="geometry" />
        </mxCell>
        <mxCell id="EECY_MYsEY5438IXKxLb-163" value="" style="rounded=0;whiteSpace=wrap;html=1;" vertex="1" parent="1">
          <mxGeometry x="292.5" y="200" width="40" height="40" as="geometry" />
        </mxCell>
        <mxCell id="EECY_MYsEY5438IXKxLb-164" value="Icon" style="text;html=1;align=center;verticalAlign=middle;whiteSpace=wrap;rounded=0;" vertex="1" parent="1">
          <mxGeometry x="292.5" y="205" width="40" height="30" as="geometry" />
        </mxCell>
        <mxCell id="EECY_MYsEY5438IXKxLb-165" value="" style="rounded=0;whiteSpace=wrap;html=1;" vertex="1" parent="1">
          <mxGeometry x="292.5" y="240" width="40" height="40" as="geometry" />
        </mxCell>
        <mxCell id="EECY_MYsEY5438IXKxLb-166" value="Icon" style="text;html=1;align=center;verticalAlign=middle;whiteSpace=wrap;rounded=0;" vertex="1" parent="1">
          <mxGeometry x="292.5" y="245" width="40" height="30" as="geometry" />
        </mxCell>
        <mxCell id="EECY_MYsEY5438IXKxLb-167" value="" style="rounded=0;whiteSpace=wrap;html=1;" vertex="1" parent="1">
          <mxGeometry x="292.5" y="280" width="40" height="40" as="geometry" />
        </mxCell>
        <mxCell id="EECY_MYsEY5438IXKxLb-168" value="Icon" style="text;html=1;align=center;verticalAlign=middle;whiteSpace=wrap;rounded=0;" vertex="1" parent="1">
          <mxGeometry x="292.5" y="285" width="40" height="30" as="geometry" />
        </mxCell>
        <mxCell id="EECY_MYsEY5438IXKxLb-169" value="" style="rounded=0;whiteSpace=wrap;html=1;" vertex="1" parent="1">
          <mxGeometry x="352.5" y="275" width="80" height="20" as="geometry" />
        </mxCell>
        <mxCell id="EECY_MYsEY5438IXKxLb-170" value="Next page" style="text;html=1;align=center;verticalAlign=middle;whiteSpace=wrap;rounded=0;" vertex="1" parent="1">
          <mxGeometry x="352.5" y="275" width="80" height="20" as="geometry" />
        </mxCell>
        <mxCell id="EECY_MYsEY5438IXKxLb-171" value="" style="rounded=0;whiteSpace=wrap;html=1;" vertex="1" parent="1">
          <mxGeometry x="352.5" y="305" width="80" height="20" as="geometry" />
        </mxCell>
        <mxCell id="EECY_MYsEY5438IXKxLb-172" value="Prev page" style="text;html=1;align=center;verticalAlign=middle;whiteSpace=wrap;rounded=0;" vertex="1" parent="1">
          <mxGeometry x="352.5" y="305" width="80" height="20" as="geometry" />
        </mxCell>
        <mxCell id="EECY_MYsEY5438IXKxLb-173" value="" style="endArrow=classic;startArrow=classic;html=1;rounded=0;entryX=0;entryY=0.5;entryDx=0;entryDy=0;exitX=1;exitY=0.5;exitDx=0;exitDy=0;strokeWidth=5;" edge="1" parent="1" source="EECY_MYsEY5438IXKxLb-1" target="bTtCV00hiHCe_hMrs-O1-1">
          <mxGeometry width="50" height="50" relative="1" as="geometry">
            <mxPoint x="460" y="255" as="sourcePoint" />
            <mxPoint x="510" y="205" as="targetPoint" />
          </mxGeometry>
        </mxCell>
        <mxCell id="EECY_MYsEY5438IXKxLb-174" value="&lt;font style=&quot;font-size: 30px;&quot;&gt;Or&lt;/font&gt;" style="text;html=1;align=center;verticalAlign=middle;whiteSpace=wrap;rounded=0;" vertex="1" parent="1">
          <mxGeometry x="460" y="190" width="60" height="30" as="geometry" />
        </mxCell>
      </root>
    </mxGraphModel>
  </diagram>
</mxfile>
